
<svg xmlns="http://www.w3.org/2000/svg" viewBox="0 0 690.97 229.3">
  <g>
    <g>
      <path d="M268.2,83.82h-4.33v-26.96h4.33v26.96Z" style="fill: #231f20;"></path>
      <path d="M284.15,56.86h4.06l14.32,19.72c-.04-.92-.04-1.96-.04-2.97v-16.75h4.33v26.96h-4.06l-14.32-19.72c.04,.92,.04,1.96,.04,2.93v16.79h-4.33v-26.96Z" style="fill: #231f20;"></path>
      <path d="M341.99,60.9h-8.77v22.91h-4.33v-22.91h-8.81v-4.04h21.91v4.04Z" style="fill: #231f20;"></path>
      <path d="M373.55,60.86h-13.97v7.36h12.84v4h-12.84v7.59h14.2v4.01h-18.53v-26.96h18.3v4.01Z" style="fill: #231f20;"></path>
      <path d="M388.28,56.86h10.63c4.98,0,10.22,2,10.22,8.43,0,4.81-2.96,7.12-6.45,7.97l8.51,10.55h-5.2l-7.97-10.09h-5.39v10.09h-4.33v-26.96Zm10.82,12.98c2.85,0,5.62-1.04,5.62-4.47s-2.77-4.51-5.62-4.51h-6.49v8.97h6.49Z" style="fill: #231f20;"></path>
      <path d="M424.39,56.86h4.07l14.32,19.72c-.04-.92-.04-1.96-.04-2.97v-16.75h4.33v26.96h-4.06l-14.32-19.72c.04,.92,.04,1.96,.04,2.93v16.79h-4.33v-26.96Z" style="fill: #231f20;"></path>
      <path d="M471.26,56.86h4.75l11.2,26.96h-4.56l-2.35-5.82h-13.33l-2.36,5.82h-4.6l11.24-26.96Zm7.52,17.29l-4.67-11.52c-.15-.42-.3-.85-.49-1.5-.19,.65-.34,1.08-.49,1.5l-4.67,11.52h10.33Z" style="fill: #231f20;"></path>
      <path d="M516.3,60.9h-8.77v22.91h-4.33v-22.91h-8.81v-4.04h21.91v4.04Z" style="fill: #231f20;"></path>
      <path d="M533.88,83.82h-4.33v-26.96h4.33v26.96Z" style="fill: #231f20;"></path>
      <path d="M562.09,56.36c9.34,0,13.97,6.85,13.97,13.98s-4.63,13.98-13.97,13.98-13.97-6.86-13.97-13.98,4.6-13.98,13.97-13.98Zm0,4.12c-6.42,0-9.57,4.7-9.57,9.86s3.15,9.86,9.57,9.86,9.57-4.7,9.57-9.86-3.11-9.86-9.57-9.86Z" style="fill: #231f20;"></path>
      <path d="M590.31,56.86h4.07l14.32,19.72c-.04-.92-.04-1.96-.04-2.97v-16.75h4.33v26.96h-4.06l-14.32-19.72c.04,.92,.04,1.96,.04,2.93v16.79h-4.33v-26.96Z" style="fill: #231f20;"></path>
      <path d="M637.17,56.86h4.75l11.2,26.96h-4.56l-2.35-5.82h-13.33l-2.35,5.82h-4.6l11.24-26.96Zm7.52,17.29l-4.67-11.52c-.15-.42-.3-.85-.49-1.5-.19,.65-.34,1.08-.49,1.5l-4.67,11.52h10.33Z" style="fill: #231f20;"></path>
      <path d="M670.4,79.73h13.97v4.08h-18.31v-26.96h4.33v22.88Z" style="fill: #231f20;"></path>
    </g>
    <g>
      <path d="M293.8,126.38h-4.75l-6.08-20.1-6.08,20.1h-4.75l-8.28-26.96h4.71l6.04,21.8,6.46-21.8h3.84l6.46,21.8,6-21.8h4.75l-8.32,26.96Z" style="fill: #d83627;"></path>
      <path d="M326.23,98.92c9.34,0,13.97,6.85,13.97,13.98s-4.63,13.98-13.97,13.98-13.97-6.85-13.97-13.98,4.6-13.98,13.97-13.98Zm0,4.12c-6.42,0-9.57,4.7-9.57,9.86s3.15,9.86,9.57,9.86,9.57-4.7,9.57-9.86-3.11-9.86-9.57-9.86Z" style="fill: #d83627;"></path>
      <path d="M381.71,126.38h-4.33v-18.87l-8.39,12.79h-2.58l-8.39-12.83v18.91h-4.33v-26.96h3.91l10.1,15.44,10.1-15.44h3.91v26.96Z" style="fill: #d83627;"></path>
      <path d="M415.21,103.43h-13.97v7.36h12.84v4h-12.84v7.59h14.2v4.01h-18.53v-26.96h18.3v4.01Z" style="fill: #d83627;"></path>
      <path d="M429.18,99.42h4.07l14.32,19.72c-.04-.92-.04-1.96-.04-2.97v-16.75h4.33v26.96h-4.06l-14.32-19.72c.04,.92,.04,1.96,.04,2.93v16.79h-4.33v-26.96Z" style="fill: #d83627;"></path>
      <path d="M464.61,100.03h4.29l-3.23,9.55h-3.3l2.24-9.55Z" style="fill: #d83627;"></path>
      <path d="M488.84,98.92c3.04,0,6.15,.77,8.32,2.04v4.2c-2.17-1.46-5.13-2.27-7.98-2.23-3.23,0-5.28,.96-5.28,3.27,0,5.82,15.19,3.47,15.19,13.09,0,5.66-4.75,7.62-10.06,7.59-3.57,0-6.8-.85-9.42-2.35v-4.32c2.89,1.89,6.08,2.66,9.12,2.66,3.42,0,5.96-.81,5.96-3.35,0-6.24-15.19-3.7-15.19-13.25,0-4.97,4.33-7.36,9.34-7.36Z" style="fill: #d83627;"></path>
      <path d="M557.92,126.38h-4.33v-18.87l-8.39,12.79h-2.58l-8.39-12.83v18.91h-4.33v-26.96h3.91l10.1,15.44,10.1-15.44h3.91v26.96Z" style="fill: #d83627;"></path>
      <path d="M591.41,103.43h-13.97v7.36h12.84v4h-12.84v7.59h14.2v4.01h-18.53v-26.96h18.3v4.01Z" style="fill: #d83627;"></path>
      <path d="M628.67,112.9c0,7.82-4.56,13.48-13.97,13.48h-9.31v-26.96h9.31c9.42,0,13.97,5.66,13.97,13.48Zm-14.01-9.47h-4.94v18.95h4.94c6.3,0,9.61-3.43,9.61-9.47s-3.3-9.47-9.61-9.47Z" style="fill: #d83627;"></path>
      <path d="M646.59,126.38h-4.33v-26.96h4.33v26.96Z" style="fill: #d83627;"></path>
      <path d="M670.02,99.42h4.75l11.2,26.96h-4.56l-2.36-5.82h-13.33l-2.36,5.82h-4.59l11.24-26.96Zm7.52,17.29l-4.67-11.51c-.15-.42-.3-.85-.49-1.5-.19,.65-.34,1.08-.49,1.5l-4.67,11.51h10.33Z" style="fill: #d83627;"></path>
    </g>
    <g>
      <path d="M282.22,146.03h-14.01v7.9h12.91v4.08h-12.91v10.94h-4.33v-26.96h18.34v4.04Z" style="fill: #231f20;"></path>
      <path d="M307.43,141.49c9.34,0,13.97,6.85,13.97,13.98s-4.63,13.98-13.97,13.98-13.98-6.85-13.98-13.98,4.59-13.98,13.98-13.98Zm0,4.12c-6.42,0-9.57,4.7-9.57,9.86s3.15,9.86,9.57,9.86,9.57-4.7,9.57-9.86-3.11-9.86-9.57-9.86Z" style="fill: #231f20;"></path>
      <path d="M357.37,158.97c0,7.82-5.43,10.48-11.32,10.48s-11.39-2.66-11.39-10.48v-16.98h4.33v16.75c0,4.89,2.93,6.62,7.06,6.62s6.99-1.73,6.99-6.62v-16.75h4.33v16.98Z" style="fill: #231f20;"></path>
      <path d="M372.33,141.99h4.07l14.32,19.72c-.04-.92-.04-1.96-.04-2.97v-16.75h4.33v26.96h-4.06l-14.32-19.72c.04,.92,.04,1.96,.04,2.93v16.79h-4.33v-26.96Z" style="fill: #231f20;"></path>
      <path d="M433.51,155.47c0,7.82-4.56,13.48-13.97,13.48h-9.3v-26.96h9.3c9.42,0,13.97,5.66,13.97,13.48Zm-14.01-9.47h-4.94v18.95h4.94c6.3,0,9.61-3.43,9.61-9.47s-3.3-9.47-9.61-9.47Z" style="fill: #231f20;"></path>
      <path d="M454.28,141.99h4.75l11.2,26.96h-4.56l-2.36-5.82h-13.33l-2.35,5.82h-4.59l11.24-26.96Zm7.52,17.29l-4.67-11.52c-.15-.42-.3-.85-.49-1.5-.19,.65-.34,1.08-.49,1.5l-4.67,11.52h10.33Z" style="fill: #231f20;"></path>
      <path d="M498.6,146.03h-8.77v22.92h-4.33v-22.92h-8.81v-4.04h21.91v4.04Z" style="fill: #231f20;"></path>
      <path d="M515.46,168.95h-4.33v-26.96h4.33v26.96Z" style="fill: #231f20;"></path>
      <path d="M542.96,141.49c9.34,0,13.97,6.85,13.97,13.98s-4.63,13.98-13.97,13.98-13.97-6.85-13.97-13.98,4.6-13.98,13.97-13.98Zm0,4.12c-6.42,0-9.57,4.7-9.57,9.86s3.15,9.86,9.57,9.86,9.57-4.7,9.57-9.86-3.11-9.86-9.57-9.86Z" style="fill: #231f20;"></path>
      <path d="M570.45,141.99h4.06l14.32,19.72c-.04-.92-.04-1.96-.04-2.97v-16.75h4.33v26.96h-4.06l-14.32-19.72c.04,.92,.04,1.96,.04,2.93v16.79h-4.33v-26.96Z" style="fill: #231f20;"></path>
    </g>
  </g>
  <g>
    <rect x=".62" y=".1" width="229.13" height="229.13" rx="38.53" ry="38.53" style="fill: #d83627;"></rect>
    <rect x="30.66" y="56.39" width="17.51" height="112.36" style="fill: #231f20;"></rect>
    <path d="M158.84,.04c-3.91,18.89-3.1,15.41-16.25,78.96C138.67,63.89,121.97,.04,121.97,.04l-13.25-.04c-7.86,30.22-7.57,29.06-20.52,79C85.03,63.69,71.65,.04,71.65,.04h-17.71l24.94,112.83h17.01s15.97-61.32,19.51-74.93c3.54,13.61,19.52,74.93,19.52,74.93h17.01L176.6,.04h-17.76Z"></path>
    <path d="M197.69,106.21v-33.2h32.1v-16.29h-49v111.88h16.9v-46.1h32.1v-16.29s-28.53,0-32.1,0Z" style="fill: #fff;"></path>
    <path d="M71.87,229.26c3.91-18.89,3.1-15.41,16.25-78.96,3.92,15.11,20.62,78.96,20.62,78.96l13.25,.04c7.86-30.22,7.57-29.06,20.52-79,3.17,15.31,16.55,78.96,16.55,78.96h17.71l-24.94-112.83h-17.01s-15.97,61.32-19.51,74.93c-3.54-13.61-19.52-74.93-19.52-74.93h-17.01l-24.68,112.83h17.76Z" style="fill: #fff;"></path>
  </g>
</svg>